<?xml version="1.0" encoding="UTF-8"?>
<svg xmlns="http://www.w3.org/2000/svg" viewBox="0 0 96 96" width="96px" height="96px">
<g id="surface12346064">
<path style=" stroke:none;fill-rule:nonzero;fill:rgb(100%,100%,100%);fill-opacity:1;" d="M 34.335938 82.921875 C 34.003906 79.949219 33.703125 75.40625 34.46875 72.164062 C 35.144531 69.238281 38.863281 53.519531 38.863281 53.519531 C 38.863281 53.519531 37.738281 51.269531 37.738281 47.953125 C 37.738281 42.734375 40.753906 38.851562 44.519531 38.851562 C 47.730469 38.851562 49.273438 41.25 49.273438 44.128906 C 49.273438 47.355469 47.21875 52.15625 46.171875 56.609375 C 45.285156 60.34375 48.03125 63.390625 51.71875 63.390625 C 58.378906 63.390625 63.511719 56.371094 63.511719 46.214844 C 63.511719 37.246094 57.058594 30.960938 47.835938 30.960938 C 37.171875 30.960938 30.914062 38.96875 30.914062 47.234375 C 30.914062 50.460938 32.144531 53.910156 33.703125 55.800781 C 34.003906 56.160156 34.050781 56.488281 33.960938 56.863281 C 33.675781 58.050781 33.046875 60.601562 32.925781 61.125 C 32.761719 61.816406 32.371094 61.949219 31.664062 61.621094 C 26.984375 59.445312 24.046875 52.605469 24.046875 47.101562 C 24.046875 35.265625 32.640625 24.40625 48.824219 24.40625 C 61.84375 24.40625 71.953125 33.675781 71.953125 46.066406 C 71.953125 58.980469 63.796875 69.390625 52.484375 69.390625 C 48.691406 69.390625 45.121094 67.410156 43.890625 65.085938 C 43.890625 65.085938 42.015625 72.238281 41.566406 73.996094 C 40.710938 77.25 38.429688 81.328125 36.898438 83.835938 "/>
<path style=" stroke:none;fill-rule:nonzero;fill:rgb(100%,100%,100%);fill-opacity:1;" d="M 48 87 C 26.496094 87 9 69.503906 9 48 C 9 26.496094 26.496094 9 48 9 C 69.503906 9 87 26.496094 87 48 C 87 69.503906 69.503906 87 48 87 Z M 48 12 C 28.152344 12 12 28.152344 12 48 C 12 67.847656 28.152344 84 48 84 C 67.847656 84 84 67.847656 84 48 C 84 28.152344 67.847656 12 48 12 Z M 48 12 "/>
</g>
</svg>
